HIERARCHY
ROOT Hips
{
	OFFSET 0.00 0.00 0.00
	CHANNELS 6 Xposition Yposition Zposition Xrotation Yrotation Zrotation
	JOINT LeftUpLeg
	{
		OFFSET 3.34807 0.00000 0.00000
		CHANNELS 3 Xrotation Yrotation Zrotation
		JOINT LeftLeg
		{
			OFFSET 0.00000 -16.98552 0.00000
			CHANNELS 3 Xrotation Yrotation Zrotation
			JOINT LeftFoot
			{
				OFFSET 0.00000 -16.83686 0.00000
				CHANNELS 3 Xrotation Yrotation Zrotation
				JOINT LeftToeBase
				{
					OFFSET 0.00000 -1.59599 5.95633
					CHANNELS 3 Xrotation Yrotation Zrotation
					End Site
					{
						OFFSET 0.00000 0.00000 2.95275
					}
				}
			}
		}
	}
	JOINT RightUpLeg
	{
		OFFSET -3.34807 0.00000 0.00000
		CHANNELS 3 Xrotation Yrotation Zrotation
		JOINT RightLeg
		{
			OFFSET 0.00000 -16.98552 0.00000
			CHANNELS 3 Xrotation Yrotation Zrotation
			JOINT RightFoot
			{
				OFFSET 0.00000 -16.83686 0.00000
				CHANNELS 3 Xrotation Yrotation Zrotation
				JOINT RightToeBase
				{
					OFFSET 0.00000 -1.59599 5.95633
					CHANNELS 3 Xrotation Yrotation Zrotation
					End Site
					{
						OFFSET 0.00000 0.00000 2.95275
					}
				}
			}
		}
	}
	JOINT Spine
	{
		OFFSET 0.00000 0.03937 0.00000
		CHANNELS 3 Xrotation Yrotation Zrotation
		JOINT Spine1
		{
			OFFSET 0.00000 7.93124 0.00000
			CHANNELS 3 Xrotation Yrotation Zrotation
			JOINT Neck
			{
				OFFSET 0.00000 8.48368 0.00000
				CHANNELS 3 Xrotation Yrotation Zrotation
				JOINT Head
				{
					OFFSET 0.00000 6.65077 0.00000
					CHANNELS 3 Xrotation Yrotation Zrotation
					End Site
					{
						OFFSET 0.00000 4.52755 0.00000
					}
				}
			}
			JOINT LeftShoulder
			{
				OFFSET 0.00000 8.48368 0.00000
				CHANNELS 3 Xrotation Yrotation Zrotation
				JOINT LeftArm
				{
					OFFSET 7.74502 -0.00003 0.00000
					CHANNELS 3 Xrotation Yrotation Zrotation
					JOINT LeftForeArm
					{
						OFFSET 12.49824 -0.00005 0.00000
						CHANNELS 3 Xrotation Yrotation Zrotation
						JOINT LeftHand
						{
							OFFSET 9.88337 -0.00004 0.00000
							CHANNELS 3 Xrotation Yrotation Zrotation
							JOINT LeftHandThumb
							{
								OFFSET 0.00000 0.00000 0.00000
								CHANNELS 3 Xrotation Yrotation Zrotation
								End Site
								{
									OFFSET 0.00000 0.00000 3.93700
								}
							}
							JOINT L_Wrist_End
							{
								OFFSET 3.93700 -0.00001 0.00000
								CHANNELS 3 Xrotation Yrotation Zrotation
							}
						}
					}
				}
			}
			JOINT RightShoulder
			{
				OFFSET 0.00000 8.48368 0.00000
				CHANNELS 3 Xrotation Yrotation Zrotation
				JOINT RightArm
				{
					OFFSET -7.74502 -0.00003 0.00000
					CHANNELS 3 Xrotation Yrotation Zrotation
					JOINT RightForeArm
					{
						OFFSET -12.49824 -0.00005 0.00000
						CHANNELS 3 Xrotation Yrotation Zrotation
						JOINT RightHand
						{
							OFFSET -9.88337 -0.00004 0.00000
							CHANNELS 3 Xrotation Yrotation Zrotation
							JOINT RightHandThumb
							{
								OFFSET 0.00000 0.00000 0.00000
								CHANNELS 3 Xrotation Yrotation Zrotation
								End Site
								{
									OFFSET 0.00000 0.00000 3.93700
								}
							}
							JOINT R_Wrist_End
							{
								OFFSET -5.39369 -0.00002 0.00000
								CHANNELS 3 Xrotation Yrotation Zrotation
							}
						}
					}
				}
			}
		}
	}
}
MOTION
Frames: 11
Frame Time: 0.066664
 35.6617 29.8857 -9.4169 -61.5661 82.0110 61.0204 -42.7041 18.6622 16.7040 56.9170 -0.0000 0.0000 -15.8592 -4.3165 -4.8461 18.3270 -0.0000 0.0000 -42.4183 -14.6624 -7.0820 58.7908 -0.0000 0.0000 -11.2036 -1.7548 -1.7138 23.1063 0.0000 0.0000 7.1423 -4.8910 -0.1220 20.4277 -4.9226 -0.7165 -9.2456 10.4428 3.9555 10.5223 -9.4917 -2.5517 -23.5914 1.7724 39.6798 -72.8755 -15.5202 -64.6537 -0.0003 -57.6758 -0.0002 -36.0916 -53.6441 49.7311 -0.0000 0.0000 -0.0000 -0.0000 0.0000 -0.0000 2.2029 -5.0183 -27.4205 -106.7095 20.9967 70.1302 -0.0003 54.8500 0.0002 154.5053 -32.1141 10.7413 -0.0000 0.0000 -0.0000 -0.0000 0.0000 -0.0000
 38.7791 26.3508 -9.3967 -48.4688 81.0559 47.2582 -51.4036 6.9572 15.0666 85.5157 -0.0000 0.0000 -26.2715 6.8082 -8.2904 9.6243 -0.0000 0.0000 -52.8448 -6.0205 -1.7788 85.9008 -0.0000 0.0000 -20.5801 -12.1630 -0.5630 14.7330 -0.0000 0.0000 5.0148 -3.8884 -0.7843 25.0857 -3.3169 0.7043 -9.8961 10.4473 4.3565 3.0627 -8.6713 -4.5914 -15.5939 9.6717 33.1917 -70.3575 -15.2608 -73.9986 -0.0005 -68.3958 -0.0004 -31.7766 -50.8675 54.3741 -0.0000 0.0000 -0.0000 -0.0000 0.0000 -0.0000 7.9102 -6.4692 -21.3233 -101.4461 18.5594 84.4105 -0.0004 60.8188 0.0002 155.5295 -30.8791 9.5059 -0.0000 0.0000 -0.0000 -0.0000 0.0000 -0.0000
 40.8402 26.4596 -9.4979 -32.8604 81.5549 31.7241 -50.2902 8.7059 15.5664 87.7687 -0.0000 0.0000 -30.8630 8.6174 -7.4537 9.4037 0.0000 0.0000 -52.6930 -6.4613 -2.4260 89.3686 -0.0000 0.0000 -22.8309 -12.1691 1.9503 12.3454 0.0000 0.0000 4.3022 -3.6451 -0.6491 27.5513 -2.8584 1.1010 -10.1650 11.8218 4.7733 -0.6709 -7.5718 -6.5993 -11.4154 13.2833 29.2203 -49.2393 -23.5936 -80.1559 -0.0004 -64.1621 -0.0003 -50.8130 -46.3775 67.9425 -0.0000 -0.0000 0.0000 -0.0000 -0.0000 0.0000 12.7456 -6.5492 -18.5268 -83.1406 27.5490 90.9514 -0.0003 51.7953 0.0001 150.4697 -29.7634 2.5957 -0.0000 -0.0000 0.0000 -0.0000 -0.0000 0.0000
 42.3291 28.4998 -9.5351 0.7190 82.1020 -1.4382 -46.5510 10.8719 15.8715 78.8744 -0.0000 0.0000 -29.4452 5.6687 -12.6384 7.9552 -0.0000 0.0000 -50.0285 -5.6056 -2.7490 82.2457 -0.0000 0.0000 -19.7334 -9.7979 5.8110 10.7163 -0.0000 0.0000 4.6861 -3.6595 -0.7025 26.9758 -2.9035 1.1338 -10.7838 12.1622 4.7285 -1.9513 -6.1087 -7.1969 -8.6527 16.5854 26.0637 -27.3414 -27.9332 -80.5255 -0.0002 -47.9184 -0.0001 -38.2245 -38.9106 55.9846 -0.0000 0.0000 -0.0000 -0.0000 0.0000 -0.0000 16.8828 -8.7656 -14.8703 -63.9740 38.1126 88.8539 -0.0002 39.9561 0.0001 150.0985 -31.6400 -4.0692 -0.0000 -0.0000 0.0000 -0.0000 -0.0000 0.0000
 43.1744 31.3438 -9.4131 44.2501 80.2139 -44.8750 -48.1790 12.0255 16.4181 69.9464 -0.0000 0.0000 -14.4237 0.6381 -16.5337 -1.6608 0.0000 -0.0000 -48.5271 -6.3947 -3.1776 70.0693 -0.0000 0.0000 -11.1135 -7.4573 7.6406 8.3900 -0.0000 0.0000 4.5182 -4.1217 -0.8732 26.4290 -3.7870 0.7088 -10.3387 11.9146 4.9505 -1.9616 -6.2314 -6.5159 -6.7493 19.6152 24.6959 -7.5050 -29.5549 -77.8303 -0.0001 -34.0996 -0.0000 -33.5940 -39.7560 54.6131 -0.0000 0.0000 -0.0000 -0.0000 0.0000 -0.0000 17.9752 -11.5491 -13.7346 -44.4271 42.5310 84.5295 -0.0001 27.1247 0.0000 147.5835 -29.0605 -9.3268 -0.0000 0.0000 -0.0000 -0.0000 0.0000 -0.0000
 43.4271 33.6993 -9.3252 69.3415 73.6959 -70.3958 -54.4672 11.6385 17.2464 61.7101 -0.0000 0.0000 -9.0479 -1.2687 -18.3792 -0.1098 0.0000 -0.0000 -52.4236 -10.1348 -4.8377 60.5172 -0.0000 0.0000 1.3447 -3.6499 10.0522 6.7342 0.0000 0.0000 3.7309 -3.9395 -0.6215 27.1233 -4.1605 -0.0563 -10.6382 11.4748 5.9917 -2.5156 -7.6671 -7.3559 -5.1476 20.9534 24.9164 9.6661 -35.0646 -74.6945 -0.0001 -25.2514 -0.0000 -32.9642 -32.7162 41.9752 -0.0000 0.0000 -0.0000 -0.0000 0.0000 -0.0000 19.0138 -14.6733 -14.2853 -27.8945 42.9126 81.0468 -0.0001 17.3898 0.0000 148.8396 -23.6658 -11.7648 -0.0000 0.0000 -0.0000 -0.0000 0.0000 -0.0000
 43.3044 34.5793 -9.3347 75.3560 64.1697 -77.1162 -62.0832 12.1802 18.6879 49.7271 -0.0000 0.0000 -7.2463 -1.6917 -26.2605 -0.7782 -0.0000 -0.0000 -59.2936 -12.7787 -4.9792 50.4821 -0.0000 0.0000 -5.1841 -4.4270 15.6734 11.0375 0.0000 0.0000 2.7885 -3.3381 -0.5279 28.7207 -4.4000 -1.2738 -9.0585 13.2419 6.4843 -13.5019 -8.8722 -8.9316 -2.1380 23.9226 24.4791 26.0250 -40.3977 -71.6921 -0.0001 -25.2909 -0.0000 -33.6026 -32.6499 37.7456 -0.0000 0.0000 -0.0000 -0.0000 0.0000 -0.0000 21.2846 -17.1668 -15.3846 -12.4828 44.8202 76.8831 -0.0000 12.7750 0.0000 148.6186 -20.0644 -14.7640 -0.0000 -0.0000 0.0000 -0.0000 -0.0000 0.0000
 43.1118 33.6680 -9.4032 78.5258 56.2024 -80.6357 -70.0623 12.9545 18.9687 44.7756 -0.0000 0.0000 -4.8702 -1.7212 -28.5823 5.4722 -0.0000 0.0000 -66.6079 -12.7239 -4.5674 45.5878 -0.0000 0.0000 -4.6438 -0.6801 17.8366 13.6719 0.0000 -0.0000 2.3198 -3.1407 -0.5820 30.9287 -4.7983 -1.9879 -6.5613 13.3479 5.9176 -27.0148 -7.7292 -9.2375 2.3961 26.2044 24.5730 37.8772 -42.2739 -74.3748 -0.0001 -27.4279 -0.0000 -37.7592 -28.9928 38.1907 -0.0000 0.0000 -0.0000 -0.0000 0.0000 -0.0000 25.3634 -19.6765 -19.0263 0.3476 42.0663 77.5146 -0.0000 7.6389 0.0000 148.3563 -22.1725 -27.0883 -0.0000 0.0000 -0.0000 -0.0000 0.0000 -0.0000
 42.8959 31.1336 -9.4404 78.7490 52.2617 -81.6291 -79.6634 10.6560 19.7913 56.4963 -0.0000 0.0000 -20.3806 -0.6873 -16.3264 12.6963 0.0000 -0.0000 -77.6853 -14.7666 -5.0035 58.4165 -0.0000 0.0000 -16.5875 -2.6592 10.4333 25.3864 -0.0000 0.0000 3.2028 -2.9620 -0.8224 33.8935 -4.9726 -2.3182 -6.2555 13.2006 5.8586 -34.0225 -6.2020 -8.1351 8.1480 27.5064 23.9901 46.7582 -47.6324 -78.1819 -0.0001 -30.0738 -0.0000 -46.0090 -14.2119 42.1203 -0.0000 0.0000 -0.0000 -0.0000 0.0000 -0.0000 31.7723 -22.9358 -19.7523 14.6016 46.1669 74.6437 0.0000 -0.7781 0.0000 9.6783 -18.1790 0.7635 -0.0000 0.0000 -0.0000 -0.0000 0.0000 -0.0000
 42.7604 28.5857 -9.5165 78.4967 46.7877 -81.8686 -94.0853 3.9291 20.3784 73.8401 -0.0000 0.0000 -24.1126 1.2660 -16.7880 12.1087 -0.0000 0.0000 -91.7756 -11.3697 -3.8161 73.3919 -0.0000 0.0000 -21.9017 -6.3741 8.6907 24.9271 -0.0000 0.0000 1.4353 -3.0426 -1.1493 38.0075 -5.8631 -2.8791 -4.8520 14.5003 5.3761 -42.6216 -4.7932 -7.1422 9.2039 25.9446 23.2606 46.9869 -56.1039 -84.1718 -0.0001 -30.5755 -0.0000 -47.1417 -4.3992 32.4524 -0.0000 0.0000 -0.0000 -0.0000 0.0000 -0.0000 34.1532 -23.3121 -19.9266 21.1596 51.2447 74.2782 0.0000 -8.5057 0.0000 20.1429 -11.9699 -5.5515 -0.0000 0.0000 -0.0000 -0.0000 0.0000 -0.0000
 43.1084 26.3868 -9.7220 79.5929 41.6630 -82.9848 -103.7654 -0.6553 17.9940 84.9970 -0.0000 0.0000 -31.1243 4.8867 -16.1320 14.6025 0.0000 0.0000 -101.9729 -9.0263 -3.4603 83.6449 -0.0000 0.0000 -29.7944 -9.0516 6.8113 25.3051 -0.0000 0.0000 2.0963 -3.6931 -0.3356 37.8132 -7.5965 -3.7264 -3.2414 15.6508 4.2218 -50.3714 -4.6702 -6.2028 4.5181 22.2171 23.8526 36.8699 -55.0178 -90.9543 -0.0001 -31.4543 -0.0000 -45.0152 -9.1424 24.7501 -0.0000 0.0000 -0.0000 -0.0000 0.0000 -0.0000 30.9799 -19.5119 -21.0155 12.3039 45.0166 81.6178 0.0000 -5.2172 0.0000 52.6162 -18.9612 -17.6445 -0.0000 0.0000 -0.0000 -0.0000 0.0000 -0.0000
